<?xml version="1.0" encoding="UTF-8"?>
<svg width="276px" height="276px" viewBox="0 0 276 276" version="1.1" xmlns="http://www.w3.org/2000/svg" xmlns:xlink="http://www.w3.org/1999/xlink">
    <!-- Generator: Sketch 53.2 (72643) - https://sketchapp.com -->
    <title>no-pending-reports</title>
    <desc>Created with Sketch.</desc>
    <defs>
        <polygon id="path-1" points="0.0158154419 0 98.6235139 0 98.6235139 133.506977 0.0158154419 133.506977"></polygon>
        <path d="M88.5767442,44.3274772 C88.5767442,3.88483634 38.4264044,-15.4577238 11.339318,14.738929 C-5.02082631,32.9787874 -3.48524373,60.931518 14.6986611,77.2376531 C43.0253636,102.64036 88.5767442,82.623722 88.5767442,44.3274772 Z" id="path-3"></path>
    </defs>
    <g id="no-pending-reports" stroke="none" stroke-width="1" fill="none" fill-rule="evenodd">
        <g transform="translate(0.000000, 17.000000)">
            <g id="Icon-Copy">
                <path d="M249.472144,39.9956846 C280.557061,90.0678499 276.06429,125.078035 275.395154,145.208659 C274.726018,165.339282 258.013034,209.296687 228.822974,224.793309 C199.632915,240.28993 176.599832,243.023734 135.496683,239.191383 C101.345628,236.007227 79.7786157,228.244689 49.4627424,209.532467 C25.4652326,194.720202 6.60843064,170.718162 1.20754653,140.637324 C-5.09068319,105.558618 13.7000397,76.3001761 47.0298006,53.0913862 C80.3595615,29.8825963 134.38331,12.155282 153.517412,5.24920054 C172.651514,-1.65688089 218.387226,-10.0764808 249.472144,39.9956846 Z" id="Path-9" fill="#E0E5EC"></path>
                <path d="M94.982992,182.296365 C102.085086,182.234369 118.171089,182.533026 143.241001,183.192336 C177.232672,183.561794 196.168676,183.755418 200.049015,183.773208 C205.869522,183.799893 218.594284,187.71505 218.84006,191.24853 C219.085837,194.78201 216.172537,197.215742 213.777276,198.455654 C211.382014,199.695566 206.172505,198.659431 204.283628,201.635759 C202.39475,204.612087 199.998429,214.514133 186.12053,214.382056 C176.868598,214.294004 166.515968,213.744489 155.06264,212.733512 C148.792161,211.779319 142.722081,212.11679 136.852401,213.745927 C128.04788,216.189632 120.107815,219.753571 108.242742,218.50719 C96.3776678,217.260808 90.3280693,215.901757 87.0757678,210.270399 C83.8234663,204.639042 87.43172,200.2573 80.003866,198.455654 C72.5760121,196.654008 68.5387088,192.597878 71.4933241,190.351481 C74.4479393,188.105084 84.3298507,182.389358 94.982992,182.296365 Z" id="Path-10" fill="#C6D7EA" opacity="0.899598"></path>
            </g>
            <polygon id="Path-49" fill="#FFFFFF" opacity="0.900000036" points="150.195349 177.153488 84.7813257 177.153488 84.7813257 60.3348135 102.697674 60.3348135 102.697674 55.8406068 117.488337 55.8406068 127.4156 50.1102471 130.939535 50.1102471 138 55.8406068 152.762791 55.8406068 155.330233 60.3348135 174.491828 60.3348135 174.491828 101.413953 174.491828 170.734884"></polygon>
            <g id="checklist" transform="translate(79.590698, 47.497674)">
                <g id="Group-3">
                    <mask id="mask-2" fill="white">
                        <use xlink:href="#path-1"></use>
                    </mask>
                    <g id="Clip-2"></g>
                    <path d="M5.19062802,128.372173 L5.19062802,15.4046712 L20.7627757,15.4046712 L20.7627757,23.1068765 C20.7627757,24.5246058 21.9249471,25.6742782 23.3580897,25.6742782 L75.2651606,25.6742782 C76.6985668,25.6742782 77.8607382,24.5246058 77.8607382,23.1068765 L77.8607382,15.4046712 L93.4328859,15.4046712 L93.4328859,118.102306 L80.4560522,118.102306 C79.0229096,118.102306 77.8607382,119.251978 77.8607382,120.669707 C77.8607382,122.087437 79.0229096,123.237109 80.4560522,123.237109 L93.4328859,123.237109 L93.4328859,128.372173 L5.19062802,128.372173 Z M25.9534037,10.2698677 L40.322787,10.2698677 C41.2490447,10.2698677 42.1051873,9.78147209 42.5691069,8.98799215 C43.9592842,6.61146366 46.5430003,5.13480349 49.3117569,5.13480349 C52.0805136,5.13480349 54.6642297,6.61146366 56.0541434,8.98799215 C56.518063,9.78147209 57.3742056,10.2698677 58.3004633,10.2698677 L72.6698466,10.2698677 L72.6698466,20.5394747 L25.9534037,20.5394747 L25.9534037,10.2698677 Z M77.8607382,10.2698677 L77.8607382,7.70246599 C77.8607382,6.28447587 76.6985668,5.13480349 75.2651606,5.13480349 L59.6895863,5.13480349 C57.256117,1.93454738 53.4061113,0 49.3117569,0 C45.2174026,0 41.3673969,1.93454738 38.9339276,5.13480349 L23.3580897,5.13480349 C21.9249471,5.13480349 20.7627757,6.28447587 20.7627757,7.70246599 L20.7627757,10.2698677 L2.59531401,10.2698677 C1.16217139,10.2698677 0,11.4195401 0,12.8372695 L0,130.939575 C0,132.357304 1.16217139,133.506977 2.59531401,133.506977 L96.0281999,133.506977 C97.4613425,133.506977 98.6235139,132.357304 98.6235139,130.939575 L98.6235139,12.8372695 C98.6235139,11.4195401 97.4613425,10.2698677 96.0281999,10.2698677 L77.8607382,10.2698677 Z" id="Fill-1" fill="#ABB3BB" mask="url(#mask-2)"></path>
                </g>
                <path d="M35.000742,33.955658 C33.9024452,33.0589177 32.2849868,33.2218903 31.388253,34.3201951 L20.8490887,47.2255375 L14.8666045,39.5066345 C13.9980322,38.3859047 12.3852673,38.1812111 11.2645457,39.0500505 C10.143824,39.9186292 9.93939271,41.5314059 10.807965,42.6521357 L18.7669662,52.9220159 C19.2464933,53.5402687 19.9812987,53.9063703 20.7635614,53.9162791 C20.774513,53.9162791 20.7854647,53.9162791 20.7964164,53.9162791 C21.5666844,53.9162791 22.2970569,53.5702557 22.7849281,52.9728634 L35.3652765,37.5681734 C36.2620102,36.4701294 36.0990388,34.8526591 35.000742,33.955658" id="Fill-4" fill="#ABB3BB"></path>
                <path d="M44.9304499,41.0790698 L86.0093458,41.0790698 C87.4270733,41.0790698 88.5767442,39.9293794 88.5767442,38.5116279 C88.5767442,37.0938764 87.4270733,35.944186 86.0093458,35.944186 L44.9304499,35.944186 C43.5127223,35.944186 42.3627907,37.0938764 42.3627907,38.5116279 C42.3627907,39.9293794 43.5127223,41.0790698 44.9304499,41.0790698" id="Fill-5" fill="#ABB3BB"></path>
                <path d="M43.6467072,51.3488372 L59.051228,51.3488372 C60.4689435,51.3488372 61.6186047,50.1991469 61.6186047,48.7813953 C61.6186047,47.3636438 60.4689435,46.2139535 59.051228,46.2139535 L43.6467072,46.2139535 C42.2289917,46.2139535 41.0790698,47.3636438 41.0790698,48.7813953 C41.0790698,50.1991469 42.2289917,51.3488372 43.6467072,51.3488372" id="Fill-6" fill="#ABB3BB"></path>
                <path d="M35.000742,64.7649603 C33.9024452,63.86822 32.2849868,64.0311926 31.388253,65.1294974 L20.8490887,78.0348398 L14.8666045,70.3159369 C13.9980322,69.195207 12.3852673,68.9905134 11.2645457,69.8593529 C10.143824,70.7279315 9.93939271,72.3407082 10.807965,73.4614381 L18.7669662,83.7313183 C19.2464933,84.3495711 19.9812987,84.7156727 20.7635614,84.7255814 C20.774513,84.7255814 20.7854647,84.7255814 20.7964164,84.7255814 C21.5666844,84.7255814 22.2970569,84.379558 22.7849281,83.7821657 L35.3652765,68.3774758 C36.2620102,67.2794317 36.0990388,65.6617007 35.000742,64.7649603" id="Fill-7" fill="#ABB3BB"></path>
                <path d="M44.9304499,71.8883721 L86.0093458,71.8883721 C87.4270733,71.8883721 88.5767442,70.7386817 88.5767442,69.3209302 C88.5767442,67.9031787 87.4270733,66.7534884 86.0093458,66.7534884 L44.9304499,66.7534884 C43.5127223,66.7534884 42.3627907,67.9031787 42.3627907,69.3209302 C42.3627907,70.7386817 43.5127223,71.8883721 44.9304499,71.8883721" id="Fill-8" fill="#ABB3BB"></path>
                <path d="M43.6467072,82.1581395 L59.051228,82.1581395 C60.4689435,82.1581395 61.6186047,81.0084492 61.6186047,79.5906977 C61.6186047,78.1729462 60.4689435,77.0232558 59.051228,77.0232558 L43.6467072,77.0232558 C42.2289917,77.0232558 41.0790698,78.1729462 41.0790698,79.5906977 C41.0790698,81.0084492 42.2289917,82.1581395 43.6467072,82.1581395" id="Fill-9" fill="#ABB3BB"></path>
                <path d="M35.000742,95.5742627 C33.9024452,94.6775223 32.2849868,94.8404949 31.388253,95.9387997 L20.8490887,108.844142 L14.8666045,101.124978 C13.9980322,100.004509 12.3852673,99.7998158 11.2645457,100.668655 C10.143824,101.537234 9.93939271,103.150011 10.807965,104.27074 L18.7669662,114.54036 C19.2464933,115.158613 19.9812987,115.524975 20.7635614,115.534884 C20.774513,115.534884 20.7854647,115.534884 20.7964164,115.534884 C21.5666844,115.534884 22.2970569,115.18886 22.7849281,114.591207 L35.3652765,99.1867781 C36.2620102,98.0884733 36.0990388,96.471003 35.000742,95.5742627" id="Fill-10" fill="#ABB3BB"></path>
                <path d="M44.9304499,102.697674 L86.0093458,102.697674 C87.4270733,102.697674 88.5767442,101.547984 88.5767442,100.130233 C88.5767442,98.712481 87.4270733,97.5627907 86.0093458,97.5627907 L44.9304499,97.5627907 C43.5127223,97.5627907 42.3627907,98.712481 42.3627907,100.130233 C42.3627907,101.547984 43.5127223,102.697674 44.9304499,102.697674" id="Fill-11" fill="#ABB3BB"></path>
                <path d="M59.051228,107.832558 L43.6467072,107.832558 C42.2289917,107.832558 41.0790698,108.982451 41.0790698,110.40013 C41.0790698,111.81781 42.2289917,112.967442 43.6467072,112.967442 L59.051228,112.967442 C60.4689435,112.967442 61.6186047,111.81781 61.6186047,110.40013 C61.6186047,108.982451 60.4689435,107.832558 59.051228,107.832558" id="Fill-12" fill="#ABB3BB"></path>
                <path d="M73.172093,118.102326 C72.4969857,118.102326 71.8343948,118.376906 71.3569434,118.854618 C70.8794921,119.33233 70.6046512,119.99466 70.6046512,120.669767 C70.6046512,121.345136 70.8792313,122.007466 71.3569434,122.484656 C71.8343948,122.962368 72.4969857,123.237209 73.172093,123.237209 C73.8474611,123.237209 74.5097913,122.962629 74.9872426,122.484656 C75.4649547,122.007466 75.7395349,121.345136 75.7395349,120.669767 C75.7395349,119.99466 75.4649547,119.332069 74.9872426,118.854618 C74.5097913,118.376906 73.8474611,118.102326 73.172093,118.102326" id="Fill-13" fill="#ABB3BB"></path>
            </g>
            <circle id="Oval" fill="#FBFCFD" cx="176.511628" cy="143.134884" r="43.0046512"></circle>
            <g id="pending" transform="translate(132.223256, 98.846512)">
                <path d="M78.3069767,44.3184093 C78.3069767,13.2537722 39.7857013,-1.60355666 18.9796784,21.5909737 C6.41319071,35.6012998 7.59269617,57.0722378 21.5600434,69.5972401 C43.3182351,89.1094645 78.3069767,73.7343655 78.3069767,44.3184093 Z M44.2357682,73.5477165 C28.3310219,73.5477165 15.0239584,60.632734 15.0239584,44.2718258 C15.0239584,18.8478934 45.1681002,5.7906422 63.8364662,22.5317732 C83.4787272,40.146661 71.4941205,73.5477165 44.2357682,73.5477165 Z" id="Fill-1" fill="#ABB3BB"></path>
                <path d="M61.804638,20.5395349 C60.4881484,20.5395349 59.4216532,21.6180518 59.4216532,22.9484991 L59.4216532,42.6781516 L43.4620546,42.6781516 C42.145565,42.6781516 41.0790698,43.7566685 41.0790698,45.0883914 C41.0790698,46.4188386 42.145565,47.4976744 43.4620546,47.4976744 L61.804638,47.4976744 C63.1198665,47.4976744 64.1860465,46.4188386 64.1860465,45.0883914 L64.1860465,22.9484991 C64.1860465,21.6180518 63.1198665,20.5395349 61.804638,20.5395349 Z" id="Fill-2" fill="#ABB3BB" transform="translate(52.632558, 34.018605) scale(-1, 1) translate(-52.632558, -34.018605) "></path>
                <g id="Group-14">
                    <mask id="mask-4" fill="white">
                        <use xlink:href="#path-3"></use>
                    </mask>
                    <g id="Mask"></g>
                    <g mask="url(#mask-4)" fill="#ABB3BB" id="Path">
                        <g transform="translate(-5.229102, -3.945381)">
                            <path d="M79.7480923,14.9547995 C68.6372802,4.96667154 53.7828422,1.46666007 40.0521485,4.54937694 L40.0521485,1.84000077 C40.0521485,-2.3576947 36.6446452,3.21292708 32.451709,3.21292708 L8.0221977,3.21292708 C3.82894879,3.21292708 0.421445503,-2.3576947 0.421445503,1.84000077 L0.421445503,85.648327 C0.421445503,89.8457092 3.82894879,93.2601941 8.0221977,93.2601941 L32.451709,93.2601941 C34.306794,93.2601941 36.008357,92.5944651 37.3275216,91.4870053 C46.805246,94.2464128 56.7913755,93.7141429 65.6328116,90.3779791 C66.8553605,89.9180778 67.4722631,88.5509054 67.0129474,87.3297235 C66.552381,86.1060353 65.1894422,85.4866723 63.9703327,85.94814 C50.0307739,91.195651 33.7574287,88.4468951 22.3058038,77.6313834 C-3.89176182,52.9016658 13.3493043,8.20101799 49.8709984,8.20101799 C70.4620361,8.20101799 87.582098,23.7001289 89.6888843,44.2556475 C91.2378632,59.3593937 84.2733992,73.6921475 71.8984529,81.8926756 C70.8091024,82.6119762 70.509875,84.0793996 71.2302721,85.1708818 C71.9484804,86.2626774 73.4164771,86.5599841 74.5036389,85.8403702 C99.1253359,69.5314195 101.463187,34.4739738 79.7480923,14.9547995 Z"></path>
                        </g>
                    </g>
                </g>
            </g>
        </g>
    </g>
</svg>